<svg width="2148" height="1330" viewBox="0 0 2148 1330" fill="none" xmlns="http://www.w3.org/2000/svg">
<g clip-path="url(#clip0_116_61)">
<rect width="2148" height="1330" rx="20" fill="#F1F4F1"/>
<path d="M342 262C227.485 262 115.541 296.544 20.3248 361.264C-74.8912 425.985 -149.103 517.974 -192.926 625.599C-236.749 733.225 -248.216 851.653 -225.875 965.908C-203.534 1080.16 -148.389 1185.11 -67.4148 1267.49C13.5598 1349.86 116.728 1405.96 229.043 1428.68C341.358 1451.41 457.775 1439.75 563.574 1395.17C669.372 1350.59 759.8 1275.09 823.421 1178.23C887.042 1081.37 921 967.493 921 851H640.613C640.613 911.08 623.1 969.811 590.288 1019.77C557.476 1069.72 510.839 1108.66 456.274 1131.65C401.71 1154.64 341.669 1160.65 283.743 1148.93C225.818 1137.21 172.61 1108.28 130.849 1065.8C89.0869 1023.32 60.6467 969.188 49.1247 910.263C37.6026 851.337 43.5162 790.259 66.1175 734.752C88.7188 679.245 126.993 631.803 176.099 598.424C225.206 565.045 282.94 547.23 342 547.23L342 262Z" fill="#A7A7A7" fill-opacity="0.08"/>
<circle cx="751.5" cy="461.5" r="199.5" fill="#A7A7A7" fill-opacity="0.08"/>
<path d="M2608.97 -93.3503C2534.92 -180.7 2436.18 -243.75 2325.24 -274.528C2214.3 -305.305 2096.14 -302.427 1985.71 -266.257C1875.28 -230.087 1777.53 -162.251 1704.82 -71.326C1632.12 19.5989 1587.72 129.529 1577.25 244.562C1566.78 359.595 1590.71 474.565 1646 574.933C1701.3 675.301 1785.48 756.559 1887.9 808.432C1990.32 860.305 2106.38 880.463 2221.4 866.356C2336.43 852.249 2445.25 804.512 2534.11 729.181L2352.79 515.307C2306.96 554.159 2250.84 578.779 2191.52 586.054C2132.2 593.329 2072.34 582.933 2019.52 556.18C1966.69 529.427 1923.28 487.519 1894.76 435.755C1866.24 383.992 1853.91 324.697 1859.31 265.37C1864.71 206.043 1887.6 149.348 1925.1 102.454C1962.59 55.5609 2013.01 20.575 2069.96 1.92088C2126.92 -16.7332 2187.86 -18.2176 2245.07 -2.34461C2302.29 13.5284 2353.21 46.0458 2391.4 91.0957L2608.97 -93.3503Z" fill="#A7A7A7" fill-opacity="0.05"/>
</g>
<defs>
<clipPath id="clip0_116_61">
<rect width="2148" height="1330" rx="20" fill="white"/>
</clipPath>
</defs>
</svg>
