<svg width="120" height="302" viewBox="0 0 120 302" fill="none" xmlns="http://www.w3.org/2000/svg">
<path d="M101.951 266.561C102.087 260.558 107.644 257.031 113.648 257.02L118.99 257.011L119.065 301.011V301.011C112.152 301.023 106.468 293.033 105.553 286.182C105.261 283.997 104.741 281.607 103.904 279.037C102.321 274.18 101.875 269.965 101.951 266.561Z" fill="white"/>
<path d="M16.745 234.222C-12.7785 235.163 75.2839 178.886 75.2839 178.886L97.2906 233.089C97.2906 233.089 46.2686 233.281 16.745 234.222Z" fill="white"/>
<path d="M13.9304 71.8308C-15.4117 72.6014 74.9527 123.645 74.9527 123.645L93.9047 68.298C93.9047 68.298 43.2725 71.0602 13.9304 71.8308Z" fill="white"/>
<path fill-rule="evenodd" clip-rule="evenodd" d="M118.97 59.1467C72.7455 62.0272 50.8768 101.648 50.9594 150.165C51.0419 198.683 73.0456 238.389 119.279 241.123L118.97 59.1467Z" fill="white"/>
<circle cx="98.7569" cy="191.002" r="16" transform="rotate(-90.0975 98.7569 191.002)" fill="#F0F0F0"/>
<circle cx="99.0304" cy="110.027" r="16" transform="rotate(-90.0975 99.0304 110.027)" fill="#F0F0F0"/>
<path d="M102.068 34.5208C102.224 40.5233 107.793 44.032 113.797 44.0217L119.139 44.0127L119.064 0.0117137C112.152 0.0234759 106.495 8.03218 105.603 14.8867C105.318 17.0732 104.807 19.4652 103.978 22.0379C102.412 26.9001 101.98 31.1166 102.068 34.5208Z" fill="white"/>
</svg>
