<svg width="58" height="59" viewBox="0 0 58 59" fill="none" xmlns="http://www.w3.org/2000/svg">
<path d="M29 0C23.2643 -6.95763e-08 17.6575 1.73014 12.8885 4.97165C8.11944 8.21315 4.40244 12.8204 2.20749 18.2108C0.0125522 23.6013 -0.561745 29.5327 0.557227 35.2552C1.6762 40.9776 4.43818 46.234 8.4939 50.3596C12.5496 54.4853 17.7169 57.2949 23.3424 58.4332C28.9678 59.5714 34.7988 58.9872 40.0978 56.7544C45.3969 54.5217 49.9261 50.7406 53.1126 45.8893C56.2992 41.0381 58 35.3345 58 29.5H43.9564C43.9564 32.5091 43.0793 35.4506 41.4358 37.9526C39.7924 40.4546 37.4565 42.4047 34.7236 43.5562C31.9907 44.7077 28.9834 45.009 26.0821 44.422C23.1809 43.8349 20.5159 42.3859 18.4242 40.2581C16.3325 38.1304 14.908 35.4195 14.3309 32.4682C13.7538 29.5169 14.05 26.4578 15.1821 23.6777C16.3141 20.8977 18.2311 18.5215 20.6906 16.8498C23.1502 15.178 26.0419 14.2857 29 14.2857V0Z" fill="#353535"/>
<circle cx="48" cy="10" r="10" fill="#353535"/>
</svg>
