<svg width="84" height="143" viewBox="0 0 84 143" fill="none" xmlns="http://www.w3.org/2000/svg">
<circle cx="42.5" cy="95.5" r="2.5" fill="#D1D1D1"/>
<circle cx="42.5" cy="110.5" r="2.5" fill="#D1D1D1"/>
<circle cx="42.5" cy="125.5" r="2.5" fill="#D1D1D1"/>
<circle cx="42.5" cy="140.5" r="2.5" fill="#D1D1D1"/>
<path d="M40 24C34.2643 24 28.6575 25.7301 23.8885 28.9716C19.1194 32.2131 15.4024 36.8204 13.2075 42.2108C11.0126 47.6013 10.4383 53.5327 11.5572 59.2552C12.6762 64.9776 15.4382 70.234 19.4939 74.3596C23.5496 78.4853 28.7169 81.2949 34.3424 82.4332C39.9678 83.5714 45.7988 82.9872 51.0978 80.7544C56.3969 78.5217 60.9261 74.7406 64.1126 69.8893C67.2992 65.0381 69 59.3345 69 53.5H54.9564C54.9564 56.5091 54.0793 59.4506 52.4358 61.9526C50.7924 64.4546 48.4565 66.4047 45.7236 67.5562C42.9907 68.7077 39.9834 69.009 37.0821 68.422C34.1809 67.8349 31.5159 66.3859 29.4242 64.2581C27.3325 62.1304 25.908 59.4195 25.3309 56.4682C24.7538 53.5169 25.05 50.4578 26.1821 47.6777C27.3141 44.8977 29.2311 42.5215 31.6906 40.8498C34.1502 39.178 37.0419 38.2857 40 38.2857V24Z" fill="#D1D1D1"/>
<circle cx="59" cy="34" r="10" fill="#FF6E91"/>
</svg>
